<svg xmlns="http://www.w3.org/2000/svg" xmlns:xlink="http://www.w3.org/1999/xlink" width="34" height="34" viewBox="0 0 34 34"><defs><linearGradient id="linear-gradient" x1=".5" x2=".5" y2="1" gradientUnits="objectBoundingBox"><stop offset="0" stop-color="#1e288e"/><stop offset="1" stop-color="#8b08ca"/></linearGradient><linearGradient id="linear-gradient-2" x1=".995" x2=".001" y1="1.828" y2="1.828" gradientUnits="objectBoundingBox"><stop offset="0" stop-color="#4171f7"/><stop offset="1" stop-color="#f74bda"/></linearGradient><linearGradient id="linear-gradient-3" x1=".129" x2=".752" y1="2.404" y2="2.185" gradientUnits="objectBoundingBox"><stop offset="0" stop-color="#f14cdb" stop-opacity=".031"/><stop offset="0" stop-color="#fff" stop-opacity="0"/><stop offset="1" stop-color="#fff" stop-opacity=".4"/></linearGradient><linearGradient id="linear-gradient-4" x1=".087" x2=".879" y1="2.152" y2="2.384" gradientUnits="objectBoundingBox"><stop offset="0" stop-color="#231f20" stop-opacity=".4"/><stop offset="1" stop-color="#231f20" stop-opacity="0"/></linearGradient><linearGradient id="linear-gradient-5" x1=".331" x2=".61" y1="2.547" y2="3.347" gradientUnits="objectBoundingBox"><stop offset="0" stop-color="#eae8fc"/><stop offset=".52" stop-color="#f7f7fe"/><stop offset="1" stop-color="#fff"/></linearGradient><linearGradient id="linear-gradient-6" x1=".636" x2=".364" y1="2.694" y2="3.349" gradientUnits="objectBoundingBox"><stop offset="0" stop-color="#dad4f4"/><stop offset=".65" stop-color="#f1effb"/><stop offset="1" stop-color="#fff"/></linearGradient><linearGradient id="linear-gradient-8" x1=".636" x2=".364" y1="2.694" y2="3.349" xlink:href="#linear-gradient-6"/></defs><g id="zelcore-round-dark" transform="translate(60.569 107.52)"><circle id="Ellipse_5900" cx="16.5" cy="16.5" r="16.5" fill="#fff" stroke="rgba(0,0,0,0)" stroke-width="1" data-name="Ellipse 5900" transform="translate(-60.069 -74.02) rotate(-90)"/><circle id="Ellipse_964" cx="15.81" cy="15.81" r="15.81" fill="url(#linear-gradient)" data-name="Ellipse 964" transform="translate(-59.379 -106.329)"/><g id="Group_68554" data-name="Group 68554" transform="translate(-56.003 -100.233)"><path id="Path_42902" fill="url(#linear-gradient-2)" d="M95.406,14.585V5.46L87.5.9,79.6,5.46v9.125l7.9,4.565Z" data-name="Path 42902" transform="translate(-75.074 -0.9)"/><path id="Path_42903" fill="url(#linear-gradient-3)" d="M87.5,86.06,79.6,81.5v9.1l7.9,4.56Z" data-name="Path 42903" opacity=".56" transform="translate(-75.074 -76.918)" style="isolation:isolate"/><path id="Path_42904" fill="url(#linear-gradient-4)" d="M218.5,95.068l.006.006,7.9-4.565v-9.1L226.4,81.4l-7.9,4.565Z" data-name="Path 42904" opacity=".56" transform="translate(-206.077 -76.823)" style="isolation:isolate"/><path id="Path_42905" fill="#fff" d="M248.138,118.6l-5.538,3.2v6.39l5.538,3.2,5.538-3.2V121.8Z" data-name="Path 42905" transform="translate(-228.807 -111.908)"/><path id="Path_42906" fill="#fff" d="M5.538,118.6,0,121.8v6.39l5.538,3.2,5.538-3.2V121.8Z" data-name="Path 42906" transform="translate(0 -111.908)"/></g><path id="Path_42907" fill="#fff" d="M248.138,124.99l-5.538-3.2,5.538-3.2,5.538,3.2Z" data-name="Path 42907" transform="translate(-284.81 -212.141)"/><path id="Path_42908" fill="url(#linear-gradient-5)" d="M248.138,184.391l-5.538-3.2V174.8l5.538,3.2Z" data-name="Path 42908" transform="translate(-284.81 -265.146)"/><path id="Path_42909" fill="url(#linear-gradient-6)" d="M345.538,181.19l-5.538,3.2V178l5.538-3.2Z" data-name="Path 42909" transform="translate(-376.673 -265.146)"/><path id="Path_42910" fill="#fff" d="M5.538,124.99,0,121.8l5.538-3.2,5.538,3.2Z" data-name="Path 42910" transform="translate(-56.003 -212.141)"/><path id="Path_42911" fill="url(#linear-gradient-5)" d="M5.538,184.391,0,181.19V174.8L5.538,178Z" data-name="Path 42911" transform="translate(-56.003 -265.146)"/><path id="Path_42912" fill="url(#linear-gradient-8)" d="M102.938,181.19l-5.538,3.2V178l5.538-3.2Z" data-name="Path 42912" transform="translate(-147.865 -265.146)"/></g></svg>