<svg xmlns="http://www.w3.org/2000/svg" id="Group_54167" width="21" height="21" data-name="Group 54167" viewBox="0 0 17 17"><g id="Group_54150" data-name="Group 54150" transform="translate(1.545 0)"><rect id="Rectangle_5329" width="2.091" height="2.091" fill="#15081f" data-name="Rectangle 5329" transform="translate(0 1.545)"/><rect id="Rectangle_5330" width="2.091" height="2.091" fill="#15081f" data-name="Rectangle 5330" transform="translate(1.545)"/><rect id="Rectangle_5331" width="2.091" height="2.091" fill="#15081f" data-name="Rectangle 5331" transform="translate(7.727 3.091)"/><rect id="Rectangle_5332" width="2.091" height="2.091" fill="#15081f" data-name="Rectangle 5332" transform="translate(7.727 6.182)"/><rect id="Rectangle_5333" width="2.091" height="2.091" fill="#15081f" data-name="Rectangle 5333" transform="translate(6.182 7.727)"/><rect id="Rectangle_5375" width="2.091" height="2.091" fill="#15081f" data-name="Rectangle 5375" transform="translate(9.273 10.818)"/><rect id="Rectangle_5376" width="2.091" height="2.091" fill="#15081f" data-name="Rectangle 5376" transform="translate(10.818 12.363)"/><rect id="Rectangle_5377" width="2.091" height="2.091" fill="#15081f" data-name="Rectangle 5377" transform="translate(12.363 13.909)"/></g><g id="Group_54151" data-name="Group 54151" transform="translate(0 0)"><rect id="Rectangle_5329-2" width="2.091" height="2.091" fill="#15081f" data-name="Rectangle 5329" transform="translate(7.727 1.545)"/><rect id="Rectangle_5330-2" width="2.091" height="2.091" fill="#15081f" data-name="Rectangle 5330" transform="translate(6.182)"/><rect id="Rectangle_5331-2" width="2.091" height="2.091" fill="#15081f" data-name="Rectangle 5331" transform="translate(0 3.091)"/><rect id="Rectangle_5332-2" width="2.091" height="2.091" fill="#15081f" data-name="Rectangle 5332" transform="translate(0 6.182)"/><rect id="Rectangle_5333-2" width="2.091" height="2.091" fill="#15081f" data-name="Rectangle 5333" transform="translate(1.545 7.727)"/><rect id="Rectangle_5373" width="2.091" height="2.091" fill="#15081f" data-name="Rectangle 5373" transform="translate(3.091 9.273)"/><rect id="Rectangle_5374" width="2.091" height="2.091" fill="#15081f" data-name="Rectangle 5374" transform="translate(6.182 9.273)"/></g></svg>