<svg xmlns="http://www.w3.org/2000/svg" xmlns:xlink="http://www.w3.org/1999/xlink" width="158" height="24" viewBox="0 0 158 24"><defs><linearGradient id="linear-gradient-kaddex-dark-mode" x1=".551" x2="1.089" y1=".499" y2=".485" gradientUnits="objectBoundingBox"><stop offset="0" stop-color="orange"/><stop offset="1" stop-color="#076c95"/></linearGradient><linearGradient id="linear-gradient-kaddex-dark-mode-2" x1=".1" x2="1.087" y1="-.1" y2=".869" gradientUnits="objectBoundingBox"><stop offset=".138" stop-color="#bc0050"/><stop offset=".192" stop-color="#a02469"/><stop offset=".276" stop-color="#7b578b"/><stop offset=".364" stop-color="#5a84a9"/><stop offset=".454" stop-color="#3eaac3"/><stop offset=".548" stop-color="#27c9d8"/><stop offset=".645" stop-color="#16e0e8"/><stop offset=".748" stop-color="#09f1f4"/><stop offset=".86" stop-color="#02fbfa"/><stop offset="1" stop-color="#00fffd"/></linearGradient></defs><g id="Group-kaddex-dark-mode_73721" data-name="Group 73721" transform="translate(1517.993 -2306.461)"><path id="Path-kaddex-dark-mode_66929" fill="#fff" d="M-1517.993,2310h2.458a.206.206,0,0,1,.206.206v23.39a.206.206,0,0,1-.206.206h-2.458" data-name="Path 66929" transform="translate(0 -3.359)"/><path id="Path-kaddex-dark-mode_66930" fill="#fff" d="M-1429.593,2320.656h3.369a.48.48,0,0,0,.332-.133l10.547-10.1a.481.481,0,0,1,.332-.133h3.822a.206.206,0,0,1,.142.354l-11.7,11.2a.48.48,0,0,0,0,.694l11.7,11.2a.206.206,0,0,1-.142.354h-3.822a.48.48,0,0,1-.332-.134l-10.48-10.046a.48.48,0,0,0-.332-.134h-3.71a.206.206,0,0,1-.206-.206v-2.439A.48.48,0,0,1-1429.593,2320.656Z" data-name="Path 66930" transform="translate(-83.373 -3.633)"/><path id="Path-kaddex-dark-mode_42610" fill="#fff" d="M-463.647,2333.866h-11.417a.48.48,0,0,1-.48-.48V2317.83a.48.48,0,0,1,.48-.48h2.443a.206.206,0,0,1,.206.206v12.959a.206.206,0,0,0,.206.206h8.568a8.437,8.437,0,0,0,4.395-1.184,9.024,9.024,0,0,0,3.19-3.166,8.423,8.423,0,0,0,1.189-4.406,8.484,8.484,0,0,0-1.189-4.406,9.014,9.014,0,0,0-3.19-3.186,8.471,8.471,0,0,0-4.395-1.179h-11.692a.206.206,0,0,1-.206-.206v-2.444a.48.48,0,0,1,.48-.48h11.417a11.4,11.4,0,0,1,5.967,1.613,12.3,12.3,0,0,1,4.318,4.319,11.436,11.436,0,0,1,1.618,5.968,11.434,11.434,0,0,1-1.618,5.978,12.337,12.337,0,0,1-4.318,4.309A11.416,11.416,0,0,1-463.647,2333.866Z" data-name="Path 42610" transform="translate(-988.53 -3.415)"/><path id="Path-kaddex-dark-mode_42611" fill="#fff" d="M61.919,2333.866H50.5a.48.48,0,0,1-.48-.48V2317.83a.48.48,0,0,1,.48-.48h2.443a.206.206,0,0,1,.206.206v12.959a.206.206,0,0,0,.206.206h8.568a8.437,8.437,0,0,0,4.395-1.184,9.031,9.031,0,0,0,3.185-3.166,8.757,8.757,0,0,0,0-8.812,9.007,9.007,0,0,0-3.185-3.186,8.471,8.471,0,0,0-4.395-1.179h-11.7a.206.206,0,0,1-.206-.206v-2.444a.48.48,0,0,1,.48-.48H61.919a11.4,11.4,0,0,1,5.967,1.613,12.3,12.3,0,0,1,4.318,4.319,11.834,11.834,0,0,1,0,11.946,12.336,12.336,0,0,1-4.318,4.309A11.426,11.426,0,0,1,61.919,2333.866Z" data-name="Path 42611" transform="translate(-1486.912 -3.415)"/><path id="Path-kaddex-dark-mode_42612" fill="#fff" d="M576.066,2310h22.84a.48.48,0,0,1,.48.48v2.443a.206.206,0,0,1-.206.206h-20.26a.206.206,0,0,0-.206.206v6.823a.206.206,0,0,0,.206.206h9.349a.48.48,0,0,1,.48.48v2.444a.206.206,0,0,1-.206.206H576.071a.48.48,0,0,1-.48-.48l0-12.533A.48.48,0,0,1,576.066,2310Zm2.648,16.15v4.306a.206.206,0,0,0,.206.206h19.985a.48.48,0,0,1,.48.48v2.458a.206.206,0,0,1-.206.206H576.066a.48.48,0,0,1-.48-.48v-6.9a.48.48,0,0,1,.48-.48h2.443A.206.206,0,0,1,578.715,2326.153Z" data-name="Path 42612" transform="translate(-1985.292 -3.359)"/><path id="Path-kaddex-dark-mode_42613" fill="#fff" d="M1088.458,2333.81h-2.975a.48.48,0,0,1-.366-.792l9.27-10.9a.48.48,0,0,0,0-.622l-9.1-10.7a.48.48,0,0,1,.366-.792h2.974a.206.206,0,0,1,.157.073l13.53,15.938q2.726,3.194,5.934,7a.48.48,0,0,1-.367.79h-2.955a.207.207,0,0,1-.157-.073l-7.912-9.33a.206.206,0,0,0-.314,0l-7.933,9.332A.206.206,0,0,1,1088.458,2333.81Zm11.06-13.3-1.625-1.943a.48.48,0,0,1,0-.619l6.689-7.874a.206.206,0,0,1,.157-.073h2.976a.48.48,0,0,1,.366.791l-8.25,9.718A.206.206,0,0,1,1099.518,2320.511Z" data-name="Path 42613" transform="translate(-2468.36 -3.359)"/><g id="Group-kaddex-dark-mode_73588" data-name="Group 73588" transform="translate(-1492.569 2306.461)"><path id="Path-kaddex-dark-mode_66931" fill="#fff" d="M-721.506,2713.5" data-name="Path 66931" transform="translate(737.278 -2692.437)"/><g id="Group-kaddex-dark-mode_68654" data-name="Group 68654" transform="translate(8.567 21.059)"><g id="Group-kaddex-dark-mode_68653" data-name="Group 68653"><path id="Path-kaddex-dark-mode_41688" fill="url(#linear-gradient-kaddex-dark-mode)" d="M-847.222,2713.762a.48.48,0,0,0-.43-.267h-12.682a.48.48,0,0,0-.48.48v2.255a.206.206,0,0,0,.206.206H-845.9Z" data-name="Path 41688" transform="translate(860.815 -2713.495)"/></g></g><g id="Group-kaddex-dark-mode_68657" data-name="Group 68657" transform="translate(13.395 0)"><g id="Group-kaddex-dark-mode_68656" data-name="Group 68656"><path id="Path-kaddex-dark-mode_41689" fill="#00fffd" d="M-749.772,2306.461l11.7,23.7a.206.206,0,0,1-.184.3h-3.153l-9.217-18.551" data-name="Path 41689" transform="translate(751.5 -2306.461)"/><path id="Path-kaddex-dark-mode_66932" fill="url(#linear-gradient-kaddex-dark-mode-2)" d="M-765.748,2306.461l3.474,7.04-1.772,3.559-3.38-6.8a.481.481,0,0,1,0-.428Z" data-name="Path 66932" transform="translate(767.476 -2306.461)"/></g></g><g id="Group-kaddex-dark-mode_68660" data-name="Group 68660" transform="translate(0 0)"><g id="Group-kaddex-dark-mode_68659" data-name="Group 68659"><path id="Path-kaddex-dark-mode_41690" fill="#ff00b9" d="M-1014.935,2306.727a.48.48,0,0,1,.43-.266h3.183l-.027.055-1.74,3.494-10.113,20.313a.206.206,0,0,1-.184.114h-2.577a.48.48,0,0,1-.43-.694Z" data-name="Path 41690" transform="translate(1026.445 -2306.461)"/></g></g></g></g></svg>