<svg xmlns="http://www.w3.org/2000/svg" xmlns:xlink="http://www.w3.org/1999/xlink" width="27" height="24.145" viewBox="0 0 27 24.145"><defs><linearGradient id="linear-gradient-kaddex-A-logo" x1=".551" x2="1.089" y1=".499" y2=".485" gradientUnits="objectBoundingBox"><stop offset="0" stop-color="orange"/><stop offset="1" stop-color="#076c95"/></linearGradient><linearGradient id="linear-gradient-kaddex-A-logo-2" x1=".1" x2="1.087" y1="-.1" y2=".869" gradientUnits="objectBoundingBox"><stop offset=".14" stop-color="#bc0050"/><stop offset=".19" stop-color="#a12569"/><stop offset=".28" stop-color="#7b588b"/><stop offset=".36" stop-color="#5a84aa"/><stop offset=".45" stop-color="#3faac3"/><stop offset=".55" stop-color="#28c9d8"/><stop offset=".64" stop-color="#16e1e9"/><stop offset=".75" stop-color="#0af2f4"/><stop offset=".86" stop-color="#02fcfb"/><stop offset="1" stop-color="#00fffd"/></linearGradient></defs><g id="Kaddex-kaddex-A-logo" transform="translate(-6569.642 -11130.479)"><g id="Logo_Down-kaddex-A-logo" transform="translate(6578.27 11151.652)"><path id="logo_down-kaddex-A-logo_yellow" fill="url(#linear-gradient-kaddex-A-logo)" d="M436.46,674.27a.484.484,0,0,0-.425-.27H423.278a.484.484,0,0,0-.484.484v2.275a.212.212,0,0,0,.212.212h14.8Z" transform="translate(-422.794 -674)"/></g><g id="Logo_dx-kaddex-A-logo" transform="translate(6583.131 11130.479)"><path id="logo_dx-kaddex-A-logo_blu" fill="#00fffd" d="M541.381,239l11.769,23.833a.212.212,0,0,1-.185.3H549.8l-9.275-18.652" transform="translate(-539.657 -239)"/><path id="Logo_dx-kaddex-A-logo_gradient" fill="url(#linear-gradient-kaddex-A-logo-2)" d="M524.26,239l3.5,7.078-1.783,3.578-3.4-6.838a.487.487,0,0,1,0-.424Z" transform="translate(-522.537 -239)"/></g><g id="Logo_sx-kaddex-A-logo" transform="translate(6569.642 11130.479)"><path id="Logo_sx-kaddex-A-logo_pink" fill="#ff00b9" d="M257.371,239.3a.484.484,0,0,1,.424-.267H261l-.028.055-1.751,3.513-10.175,20.424a.212.212,0,0,1-.185.115h-2.594a.484.484,0,0,1-.424-.7Z" transform="translate(-245.792 -239.03)"/></g></g></svg>